<svg width="512" height="512" viewBox="0 0 512 512" fill="none" xmlns="http://www.w3.org/2000/svg">
<g clip-path="url(#clip0_565_209)">
<g clip-path="url(#clip1_565_209)">
<rect width="512" height="512" rx="250" fill="#9A844C"/>
<mask id="path-2-outside-1_565_209" maskUnits="userSpaceOnUse" x="45.0419" y="322.562" width="389" height="272" fill="black">
<rect fill="white" x="45.0419" y="322.562" width="389" height="272"/>
<path d="M53.6571 352.722C54.4041 368.101 69.7941 360.935 76.6671 356.156C83.2416 351.528 85.1841 355.41 85.7811 346.451C86.2296 340.48 86.8266 334.657 86.5281 328.685C76.5171 327.789 65.7591 330.178 57.5406 336.149C53.2086 339.135 45.4386 348.99 53.6556 352.722M360.409 541.738C372.212 549.054 393.878 571.152 376.097 581.902C359.063 597.43 349.502 564.731 334.559 560.252C340.984 551.443 349.052 543.381 360.409 541.738ZM149.134 566.672C135.238 568.763 127.468 581.304 115.814 587.725C104.906 594.144 100.723 585.634 99.8256 583.843C98.1831 583.096 98.3316 584.589 95.6421 581.902C85.4826 565.925 106.102 554.281 116.86 546.367C131.801 543.381 141.215 556.37 149.134 566.672ZM426.002 350.781C425.255 366.16 409.865 358.994 402.992 354.215C396.418 349.587 394.475 353.469 393.878 344.51C393.428 338.539 392.831 332.716 393.131 326.744C403.141 325.848 413.899 328.237 422.117 334.208C426.302 337.194 434.221 347.049 426.002 350.781Z"/>
</mask>
<path d="M53.6571 352.722C54.4041 368.101 69.7941 360.935 76.6671 356.156C83.2416 351.528 85.1841 355.41 85.7811 346.451C86.2296 340.48 86.8266 334.657 86.5281 328.685C76.5171 327.789 65.7591 330.178 57.5406 336.149C53.2086 339.135 45.4386 348.99 53.6556 352.722M360.409 541.738C372.212 549.054 393.878 571.152 376.097 581.902C359.063 597.43 349.502 564.731 334.559 560.252C340.984 551.443 349.052 543.381 360.409 541.738ZM149.134 566.672C135.238 568.763 127.468 581.304 115.814 587.725C104.906 594.144 100.723 585.634 99.8256 583.843C98.1831 583.096 98.3316 584.589 95.6421 581.902C85.4826 565.925 106.102 554.281 116.86 546.367C131.801 543.381 141.215 556.37 149.134 566.672ZM426.002 350.781C425.255 366.16 409.865 358.994 402.992 354.215C396.418 349.587 394.475 353.469 393.878 344.51C393.428 338.539 392.831 332.716 393.131 326.744C403.141 325.848 413.899 328.237 422.117 334.208C426.302 337.194 434.221 347.049 426.002 350.781Z" fill="#F6D2A2"/>
<path d="M76.6671 356.156L78.9504 359.44L78.9601 359.434L78.9697 359.427L76.6671 356.156ZM85.7811 346.451L81.7923 346.152L81.791 346.168L81.7899 346.185L85.7811 346.451ZM86.5281 328.685L90.5231 328.486L90.3494 325.011L86.8848 324.701L86.5281 328.685ZM57.5406 336.149L59.8105 339.443L59.8515 339.415L59.8918 339.385L57.5406 336.149ZM360.409 541.738L362.516 538.338L361.278 537.571L359.836 537.78L360.409 541.738ZM376.097 581.902L374.028 578.479L373.692 578.681L373.402 578.946L376.097 581.902ZM334.559 560.252L331.327 557.895L327.997 562.461L333.411 564.084L334.559 560.252ZM149.134 566.672L149.729 570.627L156.443 569.617L152.305 564.234L149.134 566.672ZM115.814 587.725L113.884 584.221L113.834 584.249L113.785 584.277L115.814 587.725ZM99.8256 583.843L103.402 582.051L102.769 580.786L101.48 580.201L99.8256 583.843ZM95.6421 581.902L92.2667 584.048L92.5031 584.42L92.8147 584.731L95.6421 581.902ZM116.86 546.367L116.076 542.444L115.205 542.618L114.489 543.145L116.86 546.367ZM426.002 350.781L424.348 347.139L422.125 348.149L422.007 350.587L426.002 350.781ZM402.992 354.215L400.689 357.486L400.699 357.493L400.709 357.499L402.992 354.215ZM393.878 344.51L397.869 344.244L397.868 344.227L397.867 344.21L393.878 344.51ZM393.131 326.744L392.774 322.76L389.311 323.07L389.136 326.543L393.131 326.744ZM422.117 334.208L419.766 337.444L419.78 337.455L419.794 337.465L422.117 334.208ZM53.6571 352.722L49.6618 352.916C49.8787 357.382 51.2033 361.065 54.0007 363.458C56.7877 365.842 60.2483 366.271 63.2517 365.979C69.0869 365.412 75.3423 361.949 78.9504 359.44L76.6671 356.156L74.3837 352.872C71.1188 355.142 66.2427 357.651 62.4779 358.017C60.6813 358.191 59.7248 357.827 59.2013 357.379C58.6882 356.94 57.8089 355.751 57.6523 352.528L53.6571 352.722ZM76.6671 356.156L78.9697 359.427C80.2958 358.493 81.3448 358.014 82.21 357.683C82.6976 357.496 83.0721 357.375 83.605 357.189C84.0678 357.027 84.702 356.797 85.3296 356.467C86.8776 355.651 88.0507 354.402 88.7677 352.52C89.3637 350.955 89.6197 349.005 89.7722 346.717L85.7811 346.451L81.7899 346.185C81.6439 348.377 81.4332 349.301 81.2917 349.672C81.2446 349.796 81.2549 349.721 81.3767 349.583C81.504 349.44 81.6192 349.379 81.6017 349.388C81.5382 349.422 81.3879 349.489 80.9601 349.639C80.6023 349.764 79.9799 349.971 79.3516 350.211C77.9848 350.734 76.3256 351.505 74.3644 352.885L76.6671 356.156ZM85.7811 346.451L89.7698 346.751C90.2067 340.934 90.8375 334.776 90.5231 328.486L86.5281 328.685L82.533 328.885C82.8156 334.537 82.2524 340.026 81.7923 346.152L85.7811 346.451ZM86.5281 328.685L86.8848 324.701C76.0661 323.733 64.3082 326.288 55.1893 332.913L57.5406 336.149L59.8918 339.385C67.2099 334.068 76.968 331.845 86.1713 332.669L86.5281 328.685ZM57.5406 336.149L55.2706 332.856C52.5908 334.703 49.0319 338.461 47.2323 342.542C46.3236 344.602 45.6518 347.226 46.2976 349.913C46.9974 352.825 49.046 355.022 52.0014 356.364L53.6556 352.722L55.3097 349.08C54.1566 348.557 54.0951 348.122 54.0761 348.043C54.0031 347.74 54.0039 347.013 54.5521 345.77C55.6662 343.244 58.1583 340.582 59.8105 339.443L57.5406 336.149ZM360.409 541.738L358.301 545.138C363.804 548.549 371.652 555.482 375.917 562.59C378.052 566.149 379.013 569.294 378.819 571.813C378.647 574.043 377.532 576.36 374.028 578.479L376.097 581.902L378.167 585.325C383.553 582.068 386.397 577.592 386.795 572.427C387.171 567.55 385.311 562.698 382.777 558.474C377.703 550.018 368.816 542.243 362.516 538.338L360.409 541.738ZM376.097 581.902L373.402 578.946C369.884 582.153 367.454 582.348 365.565 581.838C363.201 581.2 360.599 579.18 357.458 575.839C355.939 574.224 354.424 572.447 352.82 570.568C351.241 568.718 349.578 566.772 347.865 564.96C344.522 561.424 340.512 557.86 335.707 556.421L334.559 560.252L333.411 564.084C336.078 564.883 338.867 567.087 342.051 570.456C343.602 572.096 345.135 573.888 346.735 575.762C348.31 577.606 349.955 579.538 351.63 581.319C354.876 584.772 358.792 588.296 363.479 589.561C368.641 590.955 373.794 589.414 378.792 584.858L376.097 581.902ZM334.559 560.252L337.791 562.609C344.058 554.016 351.288 547.099 360.981 545.697L360.409 541.738L359.836 537.78C346.816 539.663 337.909 548.871 331.327 557.895L334.559 560.252ZM149.134 566.672L148.538 562.716C140.491 563.927 134.38 568.162 129.101 572.478C123.592 576.982 119.285 581.245 113.884 584.221L115.814 587.725L117.744 591.228C123.997 587.783 129.402 582.565 134.165 578.671C139.159 574.588 143.88 571.507 149.729 570.627L149.134 566.672ZM115.814 587.725L113.785 584.277C109.333 586.898 107.17 586.075 106.159 585.454C104.705 584.561 103.857 582.961 103.402 582.051L99.8256 583.843L96.249 585.634C96.6907 586.516 98.3837 590.067 101.972 592.271C106.004 594.748 111.387 594.971 117.843 591.172L115.814 587.725ZM99.8256 583.843L101.48 580.201C100.563 579.784 99.7361 579.625 98.9653 579.604C98.681 579.596 98.3745 579.611 98.3619 579.611C98.2907 579.613 98.4029 579.606 98.568 579.624C98.758 579.646 98.9486 579.691 99.1204 579.755C99.2782 579.814 99.3605 579.868 99.356 579.865C99.3143 579.838 99.0523 579.655 98.4694 579.072L95.6421 581.902L92.8147 584.731C94.2325 586.148 95.7151 587.357 97.6848 587.576C98.1021 587.622 98.4502 587.612 98.6166 587.607C98.8414 587.6 98.7743 587.602 98.7491 587.601C98.4964 587.594 98.2667 587.528 98.1706 587.484L99.8256 583.843ZM95.6421 581.902L99.0174 579.755C96.9706 576.536 96.6267 573.844 97.085 571.485C97.5698 568.989 99.0425 566.423 101.4 563.765C106.255 558.289 113.456 553.837 119.23 549.589L116.86 546.367L114.489 543.145C109.506 546.811 101.018 552.138 95.4139 558.457C92.5414 561.696 90.0919 565.531 89.2318 569.96C88.3452 574.524 89.2338 579.279 92.2667 584.048L95.6421 581.902ZM116.86 546.367L117.643 550.289C123.628 549.093 128.547 550.999 133.134 554.662C137.882 558.454 141.899 563.824 145.962 569.11L149.134 566.672L152.305 564.234C148.449 559.218 143.8 552.942 138.126 548.411C132.291 543.751 125.032 540.655 116.076 542.444L116.86 546.367ZM426.002 350.781L422.007 350.587C421.85 353.81 420.971 354.999 420.458 355.438C419.934 355.886 418.978 356.25 417.181 356.076C413.416 355.71 408.54 353.201 405.275 350.931L402.992 354.215L400.709 357.499C404.317 360.008 410.572 363.471 416.407 364.038C419.411 364.33 422.871 363.901 425.658 361.517C428.456 359.124 429.78 355.441 429.997 350.975L426.002 350.781ZM402.992 354.215L405.295 350.944C403.334 349.564 401.674 348.793 400.308 348.27C399.679 348.03 399.057 347.823 398.699 347.698C398.271 347.548 398.121 347.481 398.057 347.447C398.04 347.438 398.155 347.499 398.282 347.642C398.404 347.78 398.414 347.855 398.367 347.731C398.226 347.36 398.015 346.436 397.869 344.244L393.878 344.51L389.887 344.776C390.039 347.064 390.295 349.014 390.891 350.579C391.608 352.461 392.781 353.71 394.33 354.526C394.957 354.856 395.591 355.086 396.054 355.248C396.587 355.434 396.962 355.555 397.449 355.742C398.314 356.073 399.363 356.552 400.689 357.486L402.992 354.215ZM393.878 344.51L397.867 344.21C397.405 338.085 396.842 332.596 397.126 326.945L393.131 326.744L389.136 326.543C388.82 332.835 389.451 338.993 389.889 344.811L393.878 344.51ZM393.131 326.744L393.488 330.728C402.69 329.904 412.448 332.127 419.766 337.444L422.117 334.208L424.468 330.972C415.35 324.347 403.592 321.791 392.774 322.76L393.131 326.744ZM422.117 334.208L419.794 337.465C421.416 338.622 423.924 341.306 425.059 343.846C425.619 345.101 425.625 345.831 425.555 346.131C425.54 346.195 425.495 346.619 424.348 347.139L426.002 350.781L427.656 354.423C430.619 353.078 432.666 350.871 433.347 347.944C433.973 345.253 433.278 342.632 432.363 340.584C430.547 336.517 427.003 332.781 424.44 330.952L422.117 334.208Z" fill="#8B6507" mask="url(#path-2-outside-1_565_209)"/>
<path d="M233.853 70.7803C277.415 70.7803 319.557 75.4117 350.53 101.184C362.15 93.5672 373.594 92.1402 383.465 94.8145C393.642 97.5718 401.95 104.635 406.965 113.325C411.977 122.012 413.781 132.476 410.715 142.087C407.759 151.351 400.369 159.541 387.607 164.502C394.837 192.167 396.935 220.496 397.632 248.946C398.345 278.103 397.593 307.167 399.31 336.181L399.642 341.583C401.35 368.731 403.695 397.878 402.692 426.548C401.622 457.151 396.739 487.407 383.111 514.417L383.112 514.418C368.777 542.991 343.756 560.816 315.164 571.221C287.484 581.294 256.353 584.456 227.998 583.688L225.263 583.603C179.817 581.954 123.922 567.119 97.8223 524.722V524.721C82.5106 499.979 78.5491 469.289 78.624 438.249C78.6615 422.708 79.7124 407.01 80.8896 391.855C82.0689 376.674 83.3714 362.073 83.9297 348.608C85.119 318.673 81.4035 288.767 79.2646 258.636C77.1748 229.194 76.6098 199.667 83.8418 170.365C70.8496 165.601 63.3092 157.638 60.2881 148.535C57.1541 139.092 59.0022 128.776 64.0723 120.159C69.1449 111.538 77.5273 104.463 87.7314 101.507C97.6252 98.6405 109.097 99.6879 120.705 106.735C149.861 81.96 191.029 74.182 233.693 70.7861L233.772 70.7803H233.853Z" fill="#F8AB00" stroke="#8B6507" stroke-width="4"/>
<path d="M430.035 341.674C428.541 338.539 425.703 334.955 423.014 333.014C416.141 328.087 407.324 325.4 398.21 325.101C397.911 315.845 397.613 305.691 397.613 292.852V281.206C397.463 244.478 397.014 228.353 394.923 208.197C393.279 192.372 390.738 177.74 387.153 164.005C399.257 159.376 407.175 151.762 410.313 141.907C413.301 132.8 411.807 122.498 406.728 113.391C401.498 104.433 393.131 97.7133 383.418 95.0274C372.959 92.19 361.604 94.2809 350.696 101.595C340.983 93.3846 329.779 87.1134 317.227 82.3351C294.964 74.1258 269.115 70.9902 234.002 70.9902V72.4831L233.852 70.9902C196.349 73.976 168.557 79.799 145.547 90.9969C136.283 95.4755 128.066 100.85 120.894 107.122C109.836 100.254 98.3315 98.6111 87.7235 101.897C77.8625 104.882 69.3455 111.9 64.265 121.007C59.1845 130.114 57.989 140.566 61.4255 149.524C64.862 158.481 72.7805 165.499 84.5855 169.829C80.8505 184.908 78.908 200.884 78.6095 218.501C78.3095 235.671 79.0565 249.408 81.746 280.461C83.6885 303.603 84.4355 314.203 84.7355 327.044C74.5745 326.596 64.415 329.283 56.7935 334.808C54.104 336.749 51.116 340.183 49.772 343.467C47.8295 347.649 48.5765 351.381 52.4615 353.62C53.0585 360.786 57.0935 364.07 63.2195 363.474C67.7015 363.026 73.0805 360.636 77.7125 357.352C78.6911 356.644 79.7431 356.044 80.8505 355.561C81.299 355.411 81.5975 355.261 82.046 355.112C82.046 355.112 82.9415 354.815 83.2415 354.665C83.6885 354.515 84.137 354.365 84.4355 354.067C84.137 361.084 83.54 368.4 82.1945 385.123C80.7005 403.934 79.9535 414.237 79.655 425.733C78.3095 468.432 83.39 499.487 98.63 524.122C103.412 531.886 109.239 538.754 116.112 545.025C114.767 545.92 109.089 550.102 107.297 551.445C101.021 556.223 96.689 560.254 94.148 564.732C90.8615 570.555 90.8615 576.378 94.5965 582.5L94.7465 582.65L94.8965 582.799C96.539 584.441 97.436 584.889 98.6315 584.889H99.077C99.227 585.189 99.377 585.337 99.527 585.635C99.974 586.382 100.422 586.978 100.871 587.576C104.606 591.907 109.835 592.951 116.858 588.771C120.593 586.83 123.282 584.589 128.96 579.812L129.26 579.512C138.374 571.75 142.856 568.914 149.58 567.868L151.971 567.42C152.867 567.869 153.764 568.168 154.81 568.614C176.027 577.125 200.679 581.753 225.633 582.65C257.907 583.844 288.986 579.812 315.282 570.257C322.305 567.72 328.88 564.732 335.156 561.448C339.041 562.941 342.326 566.077 348.603 573.393C348.902 573.692 348.902 573.692 349.05 573.989C349.35 574.289 349.35 574.439 349.5 574.587C349.797 575.035 350.246 575.334 350.544 575.782C355.476 581.603 358.764 584.441 362.499 586.083C367.428 588.173 372.21 587.128 377.141 582.65C385.808 577.275 386.405 568.914 380.726 559.357C376.692 552.64 369.671 545.622 363.096 541.143C370.866 533.529 377.589 524.422 382.818 514.119C397.163 485.453 402.692 452.009 402.393 409.01C402.243 393.782 401.645 380.495 400.002 355.112V354.367C400.749 354.665 401.496 355.113 402.243 355.71C406.875 358.845 412.254 361.383 416.736 361.831C422.862 362.429 426.897 359.143 427.494 351.977C431.229 349.588 431.976 345.856 430.034 341.676L430.035 341.674ZM382.523 98.1615C391.488 100.551 399.258 106.822 404.039 115.182C408.821 123.543 410.165 132.95 407.475 141.31C404.637 150.119 397.464 157.137 386.258 161.317C384.024 153.324 381.381 145.45 378.339 137.727C382.673 133.995 384.764 129.366 381.327 122.798C377.892 116.227 371.915 115.481 365.787 117.422C361.902 112.345 357.571 107.867 353.089 103.686C362.95 97.415 373.11 95.6239 382.523 98.1615ZM63.968 148.626C60.83 140.563 61.8755 131.009 66.6575 122.648C71.438 114.286 79.208 107.718 88.472 105.031C98.0345 102.193 108.344 103.536 118.505 109.509C112.629 114.786 107.412 120.752 102.965 127.277C95.195 123.245 87.2765 122.498 82.7945 130.709C78.1625 139.519 83.5415 145.043 91.1615 149.223C90.116 151.762 89.069 154.449 88.1735 157.137C87.1265 160.421 86.081 163.855 85.1855 167.289C74.2775 163.108 67.106 156.689 63.968 148.626ZM82.0475 352.126C81.8975 352.126 81.0005 352.424 81.0005 352.572C80.5535 352.722 80.105 352.872 79.6565 353.171C78.461 353.619 77.2655 354.365 76.0715 355.26C71.8865 358.247 66.806 360.486 62.921 360.785C58.439 361.233 55.8995 359.292 55.451 353.917C58.589 352.872 59.933 352.126 61.1285 350.335L58.7375 348.542C57.842 349.737 56.945 350.185 54.2555 351.08C54.1055 351.08 54.1055 351.08 53.9555 351.23C51.566 349.885 51.1175 347.796 52.463 344.81C53.6585 342.122 56.348 338.987 58.589 337.346C65.7605 332.119 75.323 329.582 84.8855 330.178C84.8855 333.91 85.0355 337.642 84.8855 341.225C84.8855 341.674 84.8855 341.973 84.7355 342.421C84.587 344.51 84.587 345.406 84.437 346.453C83.99 350.781 83.69 351.378 82.0475 352.126ZM127.17 577.422L126.87 577.721C121.343 582.498 118.653 584.439 115.217 586.38C109.539 589.814 105.654 589.068 102.965 585.784C102.516 585.334 102.218 584.738 101.919 584.289C101.769 584.139 101.619 583.843 101.471 583.693V583.543C101.771 580.855 102.816 578.914 105.506 574.734C105.656 574.584 105.656 574.584 105.656 574.436C107.298 572.047 108.045 570.704 108.792 569.061L106.103 567.866C105.506 569.211 104.759 570.405 103.263 572.793C103.113 572.943 103.113 572.943 103.113 573.093C100.425 576.975 99.2285 579.363 98.6315 582.05H98.4815H98.033C97.733 581.9 97.286 581.602 96.689 581.005C90.8615 571.748 95.4935 563.836 108.641 553.981C110.285 552.788 115.814 548.906 117.308 547.711C117.608 547.711 117.905 547.561 118.205 547.412C126.272 554.281 135.686 560.252 146.146 565.179C146.146 565.329 146.295 565.479 146.444 565.629C140.318 567.12 135.537 570.256 127.17 577.422ZM378.041 561.149C382.673 568.913 382.523 575.182 376.695 579.512C376.248 578.616 375.948 577.571 375.351 576.079C375.351 575.929 375.351 575.929 375.201 575.779C373.11 570.106 371.766 567.718 369.225 565.031L367.133 567.12C369.374 569.211 370.421 571.45 372.512 576.675C372.512 576.825 372.512 576.825 372.662 576.975C373.409 578.914 373.857 580.109 374.306 581.155C370.421 584.439 366.984 585.037 363.398 583.395C360.26 582.05 357.272 579.213 352.49 573.839C352.191 573.54 351.893 573.093 351.594 572.645C351.444 572.495 351.294 572.345 351.144 572.047C350.847 571.748 350.847 571.748 350.697 571.45C345.168 565.031 341.882 561.597 338.296 559.654C346.664 554.877 354.135 549.502 360.858 543.231C367.133 547.86 374.156 554.727 378.041 561.149ZM380.132 512.774C367.283 538.604 344.571 556.818 314.09 567.866C288.092 577.273 257.312 581.155 225.486 579.961C170.651 578.02 123.137 558.909 100.874 522.778C85.9325 498.739 81.0005 468.133 82.346 426.03C82.7945 414.534 83.3915 404.232 84.8855 385.42C86.5295 364.219 86.978 358.097 87.4265 348.542C87.725 341.674 87.725 334.657 87.5765 327.192C87.2765 314.053 86.5295 303.602 84.587 280.161C81.8975 249.107 81.1505 235.519 81.449 218.498C81.899 196.106 84.8855 176.396 91.1615 157.735C101.318 127.424 119.998 106.969 146.893 93.6829C169.454 82.6363 196.798 76.9617 234.002 73.9745C268.817 73.9745 294.216 77.1101 316.181 85.1724C342.477 94.8775 362.051 111.897 375.498 138.026C384.165 159.226 389.246 182.07 391.935 208.347C394.026 228.353 394.475 244.478 394.625 281.056V292.702C394.775 310.768 395.072 323.459 395.82 336.15C396.119 341.076 396.267 343.167 397.014 354.962C398.658 380.343 399.257 393.482 399.405 408.711C399.705 451.56 394.326 484.556 380.132 512.774ZM425.853 349.288C425.703 349.288 425.555 349.139 425.406 349.139C422.717 348.244 421.82 347.646 420.923 346.601L418.532 348.392C419.877 350.185 421.221 350.931 424.211 351.974C423.612 357.351 421.073 359.292 416.741 358.844C412.856 358.544 407.774 356.156 403.59 353.319C402.395 352.424 401.201 351.826 400.005 351.23C399.855 351.23 399.705 351.08 399.555 351.08C398.958 342.869 398.958 340.778 398.66 336.448L398.211 328.385C406.58 328.535 414.797 331.073 421.071 335.701C423.314 337.344 426.003 340.48 427.199 343.166C428.693 345.705 428.394 347.944 425.853 349.288Z" fill="#8B6507"/>
<path d="M256.505 226.756C256.655 234.37 258.149 242.73 256.804 250.793C254.711 254.675 250.828 255.124 247.391 256.616C242.609 255.869 238.574 252.734 236.633 248.255C235.438 239.148 236.932 230.488 237.38 221.381C237.38 221.081 243.058 221.531 248.138 223.023C252.47 224.366 256.505 226.606 256.505 226.756ZM214.22 227.352C210.035 243.18 219.749 269.008 235.736 247.807C234.541 238.848 235.886 230.189 236.333 221.381C236.483 220.634 214.37 226.307 214.22 227.352Z" fill="white"/>
<path d="M258.298 233.773C257.998 229.293 257.849 227.502 257.849 225.263V224.218L256.804 223.919L237.977 218.097V217.051L236.035 217.5H235.885V217.649L214.669 223.024L213.922 223.174L213.622 223.919C210.335 231.832 211.082 243.777 215.266 251.093C220.048 259.453 227.816 259.602 235.736 250.047C236.84 252.175 238.429 254.014 240.376 255.415C242.322 256.815 244.571 257.739 246.941 258.11H247.391L247.838 257.961C248.437 257.661 249.034 257.511 250.081 257.064C250.231 257.064 250.231 257.064 250.379 256.914C254.711 255.421 256.505 254.227 257.999 251.391L258.149 251.241V250.943C258.596 248.255 258.746 245.418 258.746 242.284C258.746 240.043 258.596 237.952 258.298 233.773ZM234.391 228.249C234.241 230.936 234.092 231.981 233.944 233.474C233.644 238.999 233.644 243.179 234.094 247.359C227.069 256.318 221.542 256.318 217.807 249.598C214.22 243.329 213.472 232.727 216.163 225.711L234.988 220.933C234.839 222.874 234.691 224.815 234.391 228.249ZM255.31 250.346C254.264 252.137 252.919 253.034 249.332 254.228C249.182 254.228 249.182 254.228 249.034 254.377C248.138 254.677 247.54 254.973 247.091 255.123C243.056 254.377 239.621 251.689 237.977 247.957C237.529 243.925 237.529 239.745 237.827 234.222C237.977 232.727 237.977 231.683 238.277 228.995C238.574 225.563 238.724 223.472 238.724 221.531L255.011 226.458C255.011 228.399 255.161 230.19 255.46 234.072C255.758 238.104 255.907 240.193 255.907 242.582C255.907 245.418 255.757 247.957 255.31 250.346Z" fill="#8B6507"/>
<path d="M166.122 107.543C178.412 105.94 191.153 108.312 201.019 114.917C210.839 121.492 217.913 132.323 218.856 147.914V147.915C220.438 173.702 200.682 190.05 178.478 193.426C156.297 196.798 132.377 187.109 125.739 161.367C122.556 145.395 126.572 132.795 134.334 123.775C142.139 114.706 153.833 109.146 166.122 107.543Z" fill="white" stroke="#8B6507" stroke-width="3"/>
<path d="M221.847 147.673C220.95 132.145 214.077 120.053 202.722 112.438C192.561 105.571 179.114 102.883 165.816 104.524C152.519 106.319 140.265 112.29 132.197 121.697C123.233 132.147 119.796 145.882 122.934 161.709C136.979 216.651 225.134 203.363 221.847 147.673ZM125.622 161.41C122.634 146.332 125.922 133.491 134.289 123.786C141.909 114.977 153.414 109.156 166.115 107.513C178.815 105.87 191.516 108.409 201.08 114.977C211.686 122.145 218.112 133.343 219.008 148.123C222.146 200.229 138.92 212.772 125.622 161.41Z" fill="#8B6507"/>
<path d="M147.887 168.577C155.891 168.577 162.38 161.558 162.38 152.9C162.38 144.242 155.891 137.224 147.887 137.224C139.883 137.224 133.394 144.242 133.394 152.9C133.394 161.558 139.883 168.577 147.887 168.577Z" fill="#8B6507"/>
<path d="M154.46 160.513C156.358 160.513 157.896 158.709 157.896 156.483C157.896 154.257 156.358 152.452 154.46 152.452C152.562 152.452 151.023 154.257 151.023 156.483C151.023 158.709 152.562 160.513 154.46 160.513Z" fill="white"/>
<path d="M286.131 99.7168C297.894 97.6605 310.245 99.1934 320.525 104.861C330.837 110.547 338.985 120.354 342.332 134.65L342.501 135.393C345.941 150.944 342.283 163.774 334.558 173.259C326.746 182.851 314.868 188.913 302.27 191.023C289.67 193.135 276.217 191.317 265.196 184.982C254.136 178.626 245.599 167.757 242.87 151.971L242.856 151.891L242.85 151.81C240.997 122.412 262.63 103.825 286.131 99.7168Z" fill="white" stroke="#8B6507" stroke-width="3"/>
<path d="M342.215 134.695C328.918 77.5118 239.27 93.1883 242.855 151.864V152.014C247.784 180.978 273.635 195.759 302.173 190.981C315.17 188.742 326.825 182.472 334.445 173.215C342.812 162.912 345.8 149.625 342.215 134.695ZM332.206 171.423C325.033 180.083 314.126 186.054 301.724 188.145C274.679 192.624 250.474 178.738 245.693 151.566C242.405 96.3239 326.975 81.5422 339.526 135.291C342.814 149.475 340.124 161.867 332.206 171.423Z" fill="#8B6507"/>
<path d="M269.002 164.705C276.841 164.705 283.196 157.686 283.196 149.028C283.196 140.37 276.841 133.352 269.002 133.352C261.162 133.352 254.807 140.37 254.807 149.028C254.807 157.686 261.162 164.705 269.002 164.705Z" fill="#8B6507"/>
<path d="M275.576 156.641C277.391 156.641 278.863 154.836 278.863 152.61C278.863 150.385 277.391 148.58 275.576 148.58C273.761 148.58 272.29 150.385 272.29 152.61C272.29 154.836 273.761 156.641 275.576 156.641Z" fill="white"/>
<path d="M255.787 192.532C262.359 195.249 269.891 199.733 274.337 205.219C276.568 207.971 278.078 211.046 278.216 214.326C278.355 217.634 277.093 221 274.073 224.292L274.073 224.291C271.36 227.275 268.557 228.698 265.64 229.063C262.76 229.424 259.884 228.738 257.051 227.731C255.63 227.226 254.194 226.63 252.758 226.028C251.314 225.423 249.871 224.812 248.4 224.258C245.458 223.149 242.481 222.298 239.396 222.227L239.341 222.226L239.286 222.218C236.719 221.876 233.67 222.531 230.286 223.586C228.607 224.109 226.887 224.717 225.13 225.326C223.381 225.932 221.601 226.538 219.839 227.041C216.337 228.041 212.782 228.675 209.538 228.045C206.223 227.401 203.34 225.459 201.191 221.562C197.915 215.654 198.863 209.029 202.112 203.809C205.352 198.6 210.957 194.657 217.217 194.103L217.24 194.101L217.263 194.1L255.363 192.457L255.583 192.447L255.787 192.532Z" fill="#F6D2A2" stroke="#8B6507" stroke-width="2"/>
<path d="M274.831 205.102C270.796 200.025 263.774 195.397 256.153 192.261L255.854 192.111H255.556L217.306 193.606C204.007 194.8 194.446 210.179 200.869 221.823C203.41 226.303 206.846 228.542 211.478 228.841C214.913 228.991 218.501 228.244 224.029 226.303C224.477 226.153 225.074 226.003 225.821 225.705C233.293 223.168 236.281 222.421 239.269 222.869H239.419C243.004 222.869 245.993 223.914 251.671 226.153C257.947 228.691 259.889 229.439 263.026 229.736C267.361 230.035 271.096 228.542 274.531 224.81C280.358 218.389 280.06 211.521 274.831 205.102ZM272.29 222.719C269.452 225.855 266.612 226.901 263.176 226.751C260.486 226.601 258.694 225.855 252.716 223.466C246.74 220.928 243.454 220.033 239.569 219.884C235.834 219.434 232.696 220.182 224.776 222.869C224.029 223.168 223.432 223.317 222.983 223.466C212.075 227.198 206.846 226.9 203.26 220.33C197.881 210.627 206.099 197.488 217.306 196.443L255.107 194.949C262.28 197.936 268.705 202.265 272.44 206.895C276.922 212.268 277.072 217.643 272.29 222.719Z" fill="#685209"/>
<path d="M258.395 188.679C253.763 171.658 214.915 174.197 215.81 194.502C217.753 209.581 262.877 205.549 258.395 188.679Z" fill="#8B6507"/>
<g clip-path="url(#clip2_565_209)">
<path d="M448.139 281.526L490.146 349.608L410.18 351.945L448.139 281.526Z" fill="black"/>
</g>
</g>
</g>
<defs>
<clipPath id="clip0_565_209">
<rect width="512" height="512" fill="white"/>
</clipPath>
<clipPath id="clip1_565_209">
<rect width="512" height="512" rx="250" fill="white"/>
</clipPath>
<clipPath id="clip2_565_209">
<rect width="80" height="80" fill="white" transform="translate(408 277.337) rotate(-1.67368)"/>
</clipPath>
</defs>
</svg>
